<svg width="84" height="17" viewBox="0 0 84 17" fill="none" xmlns="http://www.w3.org/2000/svg">
<path d="M17.0127 1H0.987344C0.455699 1 0 1.44651 0 1.96744V16.0326C0 16.5535 0.455699 17 0.987344 17H17.0127C17.5443 17 18 16.5535 18 16.0326V1.96744C18 1.44651 17.5443 1 17.0127 1ZM11.6962 2.1907H13.0633C13.1392 2.56279 13.2152 3.08372 13.3671 3.82791H11.7722C11.6962 3.0093 11.6962 2.48837 11.6962 2.1907ZM2.27848 2.1907H10.0253C10.0253 2.48837 10.0253 3.08372 10.1013 3.82791H2.27848V2.1907ZM15.7975 15.8837H2.27848V5.0186H10.2532C10.481 6.80465 11.0127 9.03721 11.924 11.1953C11.0886 12.386 10.1013 13.4279 8.96203 14.1721C8.88608 14.2465 8.96203 14.3209 8.96203 14.3209L9.34178 14.9907C9.34178 14.9907 9.41772 15.1395 9.49367 15.0651C10.7089 14.3953 11.6962 13.5023 12.5316 12.4605C13.1392 13.5023 13.8228 14.4698 14.7342 15.214C14.8101 15.2884 14.8861 15.214 14.8861 15.214L15.4177 14.5442C15.4177 14.5442 15.4937 14.4698 15.4177 14.3953C14.5823 13.4279 13.8987 12.3116 13.443 11.1953C14.0506 10.3023 14.5823 9.4093 15.038 8.44186C15.1139 8.29302 14.962 8.2186 14.962 8.2186L13.8228 7.77209C13.8228 7.77209 13.6709 7.69767 13.6709 7.84651C13.443 8.44186 13.1392 8.96279 12.8354 9.55814C12.3038 7.84651 12 6.2093 11.8481 4.86977H14.7342C14.7342 4.86977 15.1139 4.86977 15.1139 4.34884C14.962 3.45581 14.8101 2.56279 14.6582 2.04186H15.7215V15.8837H15.7975ZM9.49367 12.6093C7.67089 13.4279 4.63291 14.0233 3.26583 14.0977C3.18988 14.0977 3.11392 14.0233 3.11392 13.9488V12.6093C3.11392 12.5349 3.18988 12.4605 3.26583 12.4605C4.48102 12.4605 7.21519 12.2372 9.49367 11.5674C9.49367 11.5674 9.64557 11.5674 9.64557 11.6419V12.4605C9.64557 12.6093 9.49367 12.6093 9.49367 12.6093ZM4.10127 10.6744H8.65823C9.18988 10.6744 9.64557 10.2279 9.64557 9.70697V6.95349C9.64557 6.43256 9.18988 5.98605 8.65823 5.98605H4.10127C3.56962 5.98605 3.11392 6.43256 3.11392 6.95349V9.70697C3.11392 10.3023 3.49367 10.6744 4.10127 10.6744ZM5.24051 7.02791H7.44304V9.70697H5.24051V7.02791Z" fill="#231815"/>
<path d="M32.1012 10.2822V14.9924C32.1012 16.6911 31.4959 17 29.5286 17H28.6963C28.545 17 28.3936 16.8456 28.3936 16.6911V15.8418C28.3936 15.8418 28.3936 15.7645 28.4693 15.7645H28.9233C29.7556 15.7645 29.8313 15.4557 29.8313 14.9924V9.58723C29.8313 9.43279 29.9069 9.35558 30.0582 9.35558H31.1175C31.6472 9.27836 32.1012 9.74166 32.1012 10.2822ZM39.8189 10.6683C38.684 10.1277 37.3977 9.35558 36.4897 8.35176H39.8189C39.8946 8.35176 39.9703 8.27455 39.9703 8.19733V7.19352C39.9703 7.1163 39.8946 7.03908 39.8189 7.03908H28.4693C28.8476 6.49857 29.2259 5.95805 29.6043 5.49476H37.7003C37.776 5.49476 37.8517 5.41754 37.8517 5.34032V4.33651C37.8517 4.25929 37.776 4.18208 37.7003 4.18208H30.4366C30.7392 3.64156 31.0419 3.10105 31.2689 2.56053H39.2136C39.2893 2.56053 39.365 2.48332 39.365 2.4061V1.40229C39.365 1.32507 39.2893 1.24786 39.2136 1.24786H31.7985C31.8742 1.01621 31.9498 0.861773 31.9498 0.784557C32.0255 0.630124 32.0255 0.475691 31.7985 0.398475C31.3445 0.321258 30.5122 0.0896092 30.2096 0.0123928C29.8313 -0.0648236 29.8313 0.244041 29.8313 0.244041L29.6799 0.70734C29.6043 0.861773 29.6043 1.01621 29.5286 1.17064H22.9458C22.8701 1.17064 22.7945 1.24786 22.7945 1.32507V2.32888C22.7945 2.4061 22.8701 2.48332 22.9458 2.48332H28.9989C28.772 2.94662 28.545 3.48713 28.2423 4.10486H24.4591C24.3834 4.10486 24.3078 4.18208 24.3078 4.25929V5.26311C24.3078 5.34032 24.3834 5.41754 24.4591 5.41754H27.4857C27.183 5.95806 26.8047 6.49857 26.4264 6.96187H22.2648C22.1892 6.96187 22.1135 7.03908 22.1135 7.1163V8.12011C22.1135 8.19733 22.1892 8.27455 22.2648 8.27455H25.2157C24.3078 9.20114 23.3241 10.0505 22.1892 10.591C21.8865 10.6683 22.0378 10.9771 22.0378 10.9771L22.2648 11.5176C22.2648 11.5176 22.3405 11.7493 22.5675 11.6721C23.2485 11.4404 23.9294 11.0543 24.5348 10.6683C25.9724 11.0543 27.7127 11.8265 28.1666 12.0581C28.318 12.1354 28.3936 11.9809 28.3936 11.9809L28.9233 10.8227C28.9233 10.8227 28.9989 10.6683 28.8476 10.591C28.2423 10.3594 26.8803 9.89609 25.821 9.66444C26.3507 9.27836 26.8047 8.81506 27.2587 8.27455H34.3711C34.8251 8.73785 35.2791 9.12393 35.8087 9.58723C34.9764 9.97331 33.6145 10.2822 32.8578 10.3594C32.7822 10.3594 32.7065 10.4366 32.7822 10.5138C32.9335 10.9771 33.0091 11.286 33.0848 11.7493C33.1605 11.9037 33.2361 11.9037 33.3118 11.9037C33.8415 11.8265 36.0357 10.9771 36.9437 10.3594C37.7003 10.8227 38.5326 11.286 39.365 11.5949C39.5919 11.6721 39.6676 11.4404 39.6676 11.4404L39.8946 10.8999C39.9703 10.9771 40.1216 10.7455 39.8189 10.6683ZM29.1503 13.7569C29.0746 13.3708 29.0746 13.3708 28.9989 12.9847C28.9989 12.9075 28.9233 12.8303 28.8476 12.9075C27.0317 13.8341 25.2157 14.3746 23.2485 14.9152C23.0971 14.9924 23.0971 15.0696 23.1728 15.1468C23.3241 15.5329 23.6268 16.0734 23.7024 16.3823C23.7781 16.4595 23.8538 16.5367 24.0051 16.4595C25.594 15.919 27.637 14.8379 29.0746 13.9886C29.1503 13.9113 29.1503 13.8341 29.1503 13.7569ZM38.5326 14.9924C36.868 14.2202 34.9764 13.5253 33.3118 13.1392C33.1605 13.062 33.1605 13.2164 33.1605 13.2164L32.8578 13.9886C32.8578 13.9886 32.7822 14.143 32.9335 14.2202C34.5981 14.9152 36.0357 15.5329 37.549 16.4595C37.7003 16.5367 37.9273 16.5367 38.003 16.3823C38.3056 15.919 38.3813 15.7645 38.684 15.3012C38.684 15.1468 38.6083 14.9924 38.5326 14.9924Z" fill="#231815"/>
<path d="M48.5035 14.9907L47.665 11.8651C47.665 11.7907 47.7412 11.7163 47.8175 11.7163H49.2657C49.4182 11.7163 49.4944 11.7907 49.4944 11.9395L49.9517 15.0651C49.9517 15.0651 49.9517 15.0651 49.8755 15.0651H48.5797C48.5797 15.0651 48.5035 15.0651 48.5035 14.9907ZM56.8882 11.7163C56.812 11.7163 56.7357 11.7907 56.7357 11.8651L55.8973 14.9907C55.8973 15.0651 55.9735 15.1395 56.0497 15.1395H57.498C57.6504 15.1395 57.7267 15.0651 57.7267 14.9163L58.184 11.7907C58.184 11.7907 58.184 11.7907 58.1078 11.7907L56.8882 11.7163ZM61.9952 7.4L61.7666 8.14419C61.7666 8.14419 61.6141 8.51628 61.233 8.36744C59.8609 7.84651 58.7176 7.32558 57.7267 6.73023V7.47442C57.7267 7.54884 57.6504 7.62326 57.5742 7.62326H54.1441V9.48372H59.1749C59.2512 9.48372 59.3274 9.55814 59.3274 9.63256V10.6C59.3274 10.6744 59.2512 10.7488 59.1749 10.7488H54.1441V15.7349H61.0805C61.1568 15.7349 61.233 15.8093 61.233 15.8837V16.8512C61.233 16.9256 61.1568 17 61.0805 17H44.9209C44.8447 17 44.7685 16.9256 44.7685 16.8512V15.8837C44.7685 15.8093 44.8447 15.7349 44.9209 15.7349H51.8574V10.7488H46.8265C46.7503 10.7488 46.6741 10.6744 46.6741 10.6V9.63256C46.6741 9.55814 46.7503 9.48372 46.8265 9.48372H51.8574V7.62326H48.4273C48.351 7.62326 48.2748 7.54884 48.2748 7.47442V6.73023C47.2839 7.32558 46.1405 7.84651 44.7685 8.36744C44.3873 8.51628 44.2349 8.14419 44.2349 8.14419L44.0062 7.4C44.0062 7.4 43.93 7.10233 44.3111 7.02791C48.2748 5.3907 50.3329 2.78605 51.5525 1.29767C51.7049 1.07442 52.0098 1 52.1623 1H53.763C53.9154 1 54.2203 1.07442 54.3728 1.29767C55.5924 2.86047 57.6504 5.3907 61.6141 7.02791C62.0715 7.10233 61.9952 7.4 61.9952 7.4ZM57.1169 6.28372C55.135 5.09302 53.8392 3.75349 53.0007 2.78605C52.1623 3.82791 50.8664 5.09302 48.8846 6.28372H57.1169Z" fill="#231815"/>
<path d="M77.0593 4.88991C77.2881 4.88991 77.2881 5.0367 77.2881 5.0367C77.2881 7.53211 75.9915 8.85321 73.322 9.66055C73.0932 9.73394 73.0932 9.51376 73.0932 9.51376V8.63303C73.0932 8.63303 73.0932 8.55963 73.2458 8.48624C74.7712 7.82569 75.3051 6.87156 75.4576 4.9633C75.4576 4.74312 75.6864 4.81651 75.6864 4.81651H77.0593V4.88991ZM72.7881 5.99083H73.8559C74.0085 5.99083 74.0847 5.91743 74.0847 5.77064V3.86239H82.017V5.69725C82.017 5.84404 82.0932 5.91743 82.2458 5.91743H83.3136C83.4661 5.91743 83.5424 5.84404 83.5424 5.69725V3.49541C83.5424 2.98165 83.0847 2.54128 82.5508 2.54128H79.0424V1.22018C79.0424 1.07339 78.9661 1 78.8136 1H77.2881C77.1356 1 77.0593 1.07339 77.0593 1.22018V2.54128H72.7881C72.6356 2.54128 72.5593 2.61468 72.5593 2.76147V5.77064C72.5593 5.84404 72.6356 5.99083 72.7881 5.99083ZM83.7712 15.4587H79.0424V11.8624H82.7797C82.8559 11.8624 82.9322 11.789 82.9322 11.7156V10.7615C82.9322 10.6881 82.8559 10.6147 82.7797 10.6147H73.3983C73.322 10.6147 73.2458 10.6881 73.2458 10.7615V11.7156C73.2458 11.789 73.322 11.8624 73.3983 11.8624H77.1356V15.4587H72.4068C72.3305 15.4587 72.2542 15.5321 72.2542 15.6055V16.5596C72.2542 16.633 72.3305 16.7064 72.4068 16.7064H83.8475C83.9237 16.7064 84 16.633 84 16.5596V15.6055C83.9237 15.5321 83.8475 15.4587 83.7712 15.4587ZM71.8729 9.14679C71.8729 9.07339 71.7966 9.07339 71.7966 9.07339C71.2627 9.36697 70.7288 9.58715 70.1949 9.73394V5.99083H71.7203C71.8729 5.99083 71.9492 5.91743 71.9492 5.77064V4.88991C71.9492 4.74312 71.8729 4.66972 71.7203 4.66972H70.1949V1.44037C70.1949 1.29358 70.1186 1.22018 69.9661 1.22018H68.4407C68.2881 1.22018 68.2119 1.29358 68.2119 1.44037V4.66972H66.2288C66.0763 4.66972 66 4.74312 66 4.88991V5.77064C66 5.91743 66.0763 5.99083 66.2288 5.99083H68.2119V10.4679C67.5254 10.6881 66.7627 10.8349 66.0763 11.055C66 11.055 66 11.1284 66 11.2018C66.1525 11.5688 66.4576 12.2294 66.6102 12.4495C66.6864 12.5229 66.6864 12.5963 66.839 12.5229C67.2966 12.3761 67.7542 12.2294 68.2881 12.0092V15.0917C68.2881 15.6055 68.2119 15.8257 67.3729 15.8257H66.5339C66.4576 15.8257 66.4576 15.8257 66.4576 15.8991V16.8532C66.4576 16.9266 66.5339 17 66.6102 17H67.9068C69.9661 17 70.1949 16.7798 70.1949 15.0917V11.1284C70.8814 10.8349 71.4915 10.4679 72.0254 10.1743C72.1017 10.1009 72.1017 10.1009 72.1017 10.0275L71.8729 9.14679ZM79.2712 8.85321C79.6525 9.22018 80.4153 9.22018 80.9492 9.22018H82.7034C82.7797 9.22018 82.8559 9.14679 82.8559 9.07339V8.04587C82.8559 8.04587 82.8559 7.97248 82.7797 7.97248H81.1017C80.6441 7.89908 80.6441 7.97248 80.6441 7.31193V5.0367C80.6441 5.0367 80.6441 4.88991 80.4915 4.88991H79.1186C78.8898 4.88991 78.8898 5.0367 78.8898 5.0367V7.31193C78.8898 7.82569 78.8898 8.48624 79.2712 8.85321Z" fill="#231815"/>
</svg>